Coordinates
version=1
nRows=6
nColumns=60
inDegrees=yes

Units are S.I. units (second, meters, Newtons, ...)
If the header above contains a line with 'inDegrees', this indicates whether rotational values are in degrees (yes) or radians (no).

endheader
time	pelvis_tilt	pelvis_list	pelvis_rotation	pelvis_tx	pelvis_ty	pelvis_tz	hip_flexion_r	hip_adduction_r	hip_rotation_r	knee_angle_r_beta	knee_angle_r	ankle_angle_r	subtalar_angle_r	mtp_angle_r	hip_flexion_l	hip_adduction_l	hip_rotation_l	knee_angle_l_beta	knee_angle_l	ankle_angle_l	subtalar_angle_l	mtp_angle_l	L5_S1_Flex_Ext	L5_S1_Lat_Bending	L5_S1_axial_rotation	L4_L5_Flex_Ext	L4_L5_Lat_Bending	L4_L5_axial_rotation	L3_L4_Flex_Ext	L3_L4_Lat_Bending	L3_L4_axial_rotation	L2_L3_Flex_Ext	L2_L3_Lat_Bending	L2_L3_axial_rotation	L1_L2_Flex_Ext	L1_L2_Lat_Bending	L1_L2_axial_rotation	L1_T12_Flex_Ext	L1_T12_Lat_Bending	L1_T12_axial_rotation	Abs_r3	Abs_r2	Abs_r1	Abs_t1	Abs_t2	arm_flex_r	arm_add_r	arm_rot_r	elbow_flex_r	pro_sup_r	wrist_flex_r	wrist_dev_r	arm_flex_l	arm_add_l	arm_rot_l	elbow_flex_l	pro_sup_l	wrist_flex_l	wrist_dev_l
      8.15000000	      0.24571305	     -5.57244521	     93.61808457	      0.39272301	      0.87926143	      0.41814322	     35.85051519	     -6.55095324	     -0.16420089	      0.60611425	    -34.72778864	      6.88827155	      0.00000000	      0.00000000	     36.45532402	     -4.21678542	      0.34683198	      0.57984680	    -33.22277461	      6.70245125	      0.00000000	      0.00000000	    -10.92271845	      0.25987914	     -0.15571700	    -20.28458043	      0.34563926	     -0.16544932	    -17.94493414	      0.63187014	     -0.16544932	    -12.48357491	      0.63187014	     -0.13625238	    -10.14283635	      0.52994554	     -0.12652007	     -6.24124132	      0.40255279	     -0.11678775	    -78.01988560	      2.93980482	     -0.86605126	      0.00000000	      0.00000000	     66.10816004	    -22.79720798	     18.07763338	     56.12118124	     72.84074377	      7.91457635	      1.09679295	     70.66513095	    -21.45223147	     27.05701480	     50.89224199	     64.32931153	     11.31229413	      3.14710289
      8.16000000	      0.25673790	     -5.86476799	     93.67512350	      0.39294767	      0.87688370	      0.41968783	     36.69514007	     -6.61495757	     -0.25396188	      0.61957157	    -35.49883580	      7.04005866	      0.00000000	      0.00000000	     37.29348218	     -4.26654255	      0.19240280	      0.59210473	    -33.92510213	      6.85961433	      0.00000000	      0.00000000	    -10.96301877	      0.25981824	     -0.16250288	    -20.35942215	      0.34555826	     -0.17265931	    -18.01114353	      0.63172206	     -0.17265931	    -12.52963415	      0.63172206	     -0.14219002	    -10.18025923	      0.52982135	     -0.13203359	     -6.26426892	      0.40245845	     -0.12187716	    -78.30774674	      2.93911587	     -0.90379228	      0.00000000	      0.00000000	     67.13643618	    -22.60488329	     18.09998746	     55.76755391	     72.85961683	      7.96937509	      1.14058788	     71.77287758	    -21.39859657	     27.21577624	     50.49283071	     64.38714129	     11.36776792	      3.18225090
      8.17000000	      0.27114182	     -6.05623873	     93.72709975	      0.39320952	      0.87478410	      0.42112653	     37.37327588	     -6.63173056	     -0.21598190	      0.63147145	    -36.18064912	      7.11751541	      0.00000000	      0.00000000	     37.96708961	     -4.29456872	      0.16827933	      0.60287117	    -34.54197380	      6.93047315	      0.00000000	      0.00000000	    -11.02359812	      0.26184982	     -0.16692813	    -20.47192407	      0.34826026	     -0.17736113	    -18.11066936	      0.63666166	     -0.17736113	    -12.59887029	      0.63666166	     -0.14606211	    -10.23651322	      0.53396416	     -0.13562910	     -6.29888397	      0.40560537	     -0.12519609	    -78.74045903	      2.96209756	     -0.92840416	      0.00000000	      0.00000000	     68.13287871	    -22.45743894	     18.04252447	     55.64188226	     72.86829555	      7.99056096	      1.14921452	     72.84705461	    -21.39485033	     27.22402649	     50.25682954	     64.39697605	     11.38390589	      3.18617632
      8.18000000	      0.27495642	     -6.41535681	     93.76688249	      0.39343597	      0.87228139	      0.42259271	     38.26067433	     -6.71852449	     -0.35309775	      0.64418147	    -36.90887970	      7.31974583	      0.00000000	      0.00000000	     38.86677211	     -4.34746785	     -0.04609724	      0.61507566	    -35.24123931	      7.11996610	      0.00000000	      0.00000000	    -11.04189832	      0.26073592	     -0.17460416	    -20.50590937	      0.34677877	     -0.18551692	    -18.14073475	      0.63395331	     -0.18551692	    -12.61978559	      0.63395331	     -0.15277864	    -10.25350678	      0.53169269	     -0.14186588	     -6.30934070	      0.40387994	     -0.13095312	    -78.87117551	      2.94949686	     -0.97109594	      0.00000000	      0.00000000	     69.10363834	    -22.28062118	     18.14318164	     55.26841568	     72.88966449	      8.03095723	      1.19673395	     73.87934117	    -21.36393415	     27.44797657	     49.80882396	     64.38089824	     11.38613068	      3.20678286
      8.19000000	      0.28237598	     -6.80379496	     93.79313345	      0.39365419	      0.86981926	      0.42401644	     39.14167142	     -6.77874732	     -0.39976816	      0.65542865	    -37.55329528	      7.49581172	      0.00000000	      0.00000000	     39.75306882	     -4.38110792	     -0.16289608	      0.62612093	    -35.87408664	      7.27718452	      0.00000000	      0.00000000	    -11.05329754	      0.26043364	     -0.18464423	    -20.52707886	      0.34637675	     -0.19618449	    -18.15946253	      0.63321836	     -0.19618449	    -12.63281376	      0.63321836	     -0.16156370	    -10.26409210	      0.53107629	     -0.15002343	     -6.31585421	      0.40341172	     -0.13848317	    -78.95259900	      2.94607748	     -1.02693579	      0.00000000	      0.00000000	     70.06928932	    -22.09499837	     18.28000326	     54.88291355	     72.91193295	      8.08896166	      1.24616104	     74.86400699	    -21.38671371	     27.65839450	     49.37170514	     64.28493856	     11.31867281	      3.18602022
      8.20000000	      0.29262943	     -7.15835508	     93.81053114	      0.39382926	      0.86743069	      0.42532195	     39.98462977	     -6.85441686	     -0.50644351	      0.66684591	    -38.20745643	      7.65116467	      0.00000000	      0.00000000	     40.61089251	     -4.42860341	     -0.29838313	      0.63777061	    -36.54156453	      7.42240345	      0.00000000	      0.00000000	    -11.07023391	      0.26087598	     -0.19670860	    -20.55853139	      0.34696505	     -0.20900289	    -18.18728729	      0.63429385	     -0.20900289	    -12.65217034	      0.63429385	     -0.17212003	    -10.27981921	      0.53197829	     -0.15982574	     -6.32553166	      0.40409689	     -0.14753145	    -79.07357379	      2.95108122	     -1.09403423	      0.00000000	      0.00000000	     70.99229115	    -21.91596435	     18.38722577	     54.56742960	     72.92426302	      8.14052168	      1.28478950	     75.79364179	    -21.43815559	     27.73809173	     49.05090114	     64.13746860	     11.18866765	      3.13168993
